<svg width="24" height="24" viewBox="0 0 24 24" fill="none" xmlns="http://www.w3.org/2000/svg">
<g id="Property 1=&#208;&#178;&#209;&#139;&#208;&#177;&#209;&#128;&#208;&#176;&#208;&#189;&#209;&#139;&#208;&#185;">
<path id="Subtract" fill-rule="evenodd" clip-rule="evenodd" d="M8 0C3.58172 0 0 3.58172 0 8V16C0 20.4183 3.58172 24 8 24H16C20.4183 24 24 20.4183 24 16V8C24 3.58172 20.4183 0 16 0H8ZM17.6399 10.3736C18.1543 9.79371 18.1126 8.89624 17.5468 8.36905C16.9809 7.84186 16.1052 7.8846 15.5908 8.4645L10.7413 13.9317L8.40915 11.3026C7.89476 10.7227 7.01906 10.68 6.45323 11.2071C5.8874 11.7343 5.8457 12.6318 6.36009 13.2117L9.03371 16.2258C9.94931 17.2581 11.5332 17.2581 12.4488 16.2258L17.6399 10.3736Z" fill="url(#paint0_linear_992_6108)"/>
</g>
<defs>
<linearGradient id="paint0_linear_992_6108" x1="-2.25703e-07" y1="17.6" x2="24.5572" y2="16.7848" gradientUnits="userSpaceOnUse">
<stop stop-color="#369AAC"/>
<stop offset="1" stop-color="#05ADC5"/>
</linearGradient>
</defs>
</svg>
